<?xml version="1.0" encoding="UTF-8"?>
<!DOCTYPE svg PUBLIC "-//W3C//DTD SVG 1.1//EN" "http://www.w3.org/Graphics/SVG/1.1/DTD/svg11.dtd">
<!-- Creator: CorelDRAW X7 -->
<svg xmlns="http://www.w3.org/2000/svg" xml:space="preserve" width="215.9mm" height="279.4mm" version="1.1" style="shape-rendering:geometricPrecision; text-rendering:geometricPrecision; image-rendering:optimizeQuality; fill-rule:evenodd; clip-rule:evenodd"
viewBox="0 0 21590 27940"
 xmlns:xlink="http://www.w3.org/1999/xlink">
 <defs>
  <style type="text/css">
   <![CDATA[
    .fil1 {fill:#FEFEFE}
    .fil0 {fill:#00B359}
   ]]>
  </style>
     <clipPath id="id0">
      <path d="M10809 -31598l3000 0 0 2983 -3000 0 0 -2983z"/>
     </clipPath>
 </defs>
 <g id="Layer_x0020_1">
  <metadata id="CorelCorpID_0Corel-Layer"/>
  <g id="_2342678415200">
   <g>
    <g style="clip-path:url(#id0)">
     <image x="10809" y="-31598" width="3000" height="2983" xlink:href="Best Seller_Images\Best Seller_ImgID1.png"/>
    </g>
   </g>
   <path class="fil0" d="M10773 -30317l1290 -1289c1623,0 1623,-6 1623,-6l-2896 2896 -17 -1601z"/>
   <path class="fil1" d="M10910 -29781l175 174 86 -85c41,-42 48,-86 18,-116 -22,-23 -54,-26 -80,-8 14,-24 10,-50 -8,-68 -27,-27 -69,-19 -108,20l-83 83zm79 -11l35 -36c13,-13 28,-14 39,-3 12,11 10,26 -3,39l-36 36 -35 -36zm67 68l36 -36c17,-16 34,-19 46,-7 12,12 9,29 -7,46l-36 36 -39 -39zm204 -338l-34 -35 -137 137 174 175 140 -140 -35 -35 -95 95 -35 -35 83 -83 -35 -35 -83 83 -35 -34 92 -93zm62 -135c-42,42 -49,90 -17,122 62,62 136,-49 167,-18 10,10 6,24 -8,38 -18,18 -55,35 -89,37l17 51c38,-3 79,-22 108,-51 39,-39 51,-89 16,-124 -63,-63 -138,47 -168,16 -9,-8 -5,-20 6,-31 15,-15 45,-30 74,-38l-18 -52c-29,7 -63,25 -88,50zm265 -189l-36 -36 -149 149 36 36 52 -52 139 139 44 -45 -139 -139 53 -52zm106 -182c-42,42 -49,90 -17,122 62,62 136,-49 167,-18 10,10 6,24 -8,38 -18,18 -55,35 -89,37l17 51c38,-3 79,-22 108,-51 39,-39 51,-89 16,-124 -63,-63 -138,47 -168,16 -9,-8 -5,-20 6,-31 15,-15 45,-30 74,-38l-18 -52c-29,7 -63,25 -88,50zm267 -193l-35 -35 -136 136 174 175 140 -140 -35 -34 -95 95 -35 -36 83 -83 -35 -35 -83 83 -35 -34 92 -92zm179 26l-138 -137 -44 44 175 175 118 -119 -37 -37 -74 74zm139 -140l-137 -137 -44 44 174 175 119 -118 -37 -38 -75 74zm130 -334l-35 -35 -137 137 175 174 139 -139 -34 -35 -96 95 -35 -35 84 -84 -35 -34 -84 83 -34 -35 92 -92zm276 3l51 -51 -94 -20c10,-31 2,-62 -25,-88 -39,-39 -87,-35 -133,11l-79 79 175 174 45 -44 -50 -49 34 -34 1 -1 75 23zm-145 -23l-55 -56 33 -34c20,-19 40,-21 58,-3 19,19 17,40 -2,59l-34 34zm128 -218l-44 -45 -41 41 44 45 77 62 26 -26 -62 -77zm68 111c-12,12 -12,29 0,41 13,13 30,12 42,0 12,-12 12,-29 0,-42 -12,-12 -29,-12 -42,1z"/>
  </g>
 </g>
</svg>
